<?xml version="1.0" encoding="utf-8"?>
<!-- Generator: Adobe Illustrator 16.0.0, SVG Export Plug-In . SVG Version: 6.00 Build 0)  -->
<!DOCTYPE svg PUBLIC "-//W3C//DTD SVG 1.1//EN" "http://www.w3.org/Graphics/SVG/1.1/DTD/svg11.dtd">
<svg version="1.1" id="Layer_1" xmlns="http://www.w3.org/2000/svg" xmlns:xlink="http://www.w3.org/1999/xlink" x="0px" y="0px"
	 width="16px" height="16px" viewBox="0 0 16 16" enable-background="new 0 0 16 16" xml:space="preserve">
<g>
	<path fill="#222222" d="M8,1C4.1,1,1,4.1,1,8c0,3.9,3.1,7,7,7c3.9,0,7-3.1,7-7C15,4.1,11.9,1,8,1z M8,14c-3.3,0-6-2.7-6-6
		s2.7-6,6-6s6,2.7,6,6S11.3,14,8,14z"/>
	<path fill="#222222" d="M9,4H7v2h2V4z M9,11V7H7l0,0H6v1h1v3H6v1h4v-1H9z"/>
</g>
</svg>
